# xmcd
#
# Track frame offsets:
#	150
#	10495
#	22403
#	34307
#	44696
#	53027
#	63110
#	74660
#	87053
#	97934
#	111158
#	123431
#	136876
#	149766
#	165268
#
# Disc length: 2390 seconds
#
# Revision: 2
# Processed by: cddbd v1.5.2PL0 Copyright (c) Steve Scherf et al.
# Submitted via: EZCDAudioConverter 2.1.5.1
#
DISCID=d709540f
DTITLE=Various Artist - 60-luku 30 suosikkia cd2
DYEAR=1969
DGENRE=Oldies
TTITLE0=Sounds - Emma
TTITLE1=Strangers - Kolme kitaraa
TTITLE2=Eero Raittinen - Vanha holvikirkko
TTITLE3=Laila ja Ritva Kinnunen - Pojat
TTITLE4=Simo Salminen - Rotestilaulu
TTITLE5=Johnny - Tunti vain
TTITLE6=Eino Grön - Suudelmin suljetut kirjeet
TTITLE7=Kai Hyttinen - Käymään vain
TTITLE8=Katri Helena - Puhelinlangat laulaa
TTITLE9=Four Cats - Suuret setelit
TTITLE10=Tamara Lund - Sinun omasi
TTITLE11=Reijo Taipale - Satumaa
TTITLE12=Laila Halme - Kitara ja meri
TTITLE13=Irwin Goodman - Ryysyranta
TTITLE14=Fredi - Kolmatta linjaa
EXTD=
EXTT0=
EXTT1=
EXTT2=
EXTT3=
EXTT4=
EXTT5=
EXTT6=
EXTT7=
EXTT8=
EXTT9=
EXTT10=
EXTT11=
EXTT12=
EXTT13=
EXTT14=
PLAYORDER=
